G04 (created by PCBNEW (2013-jul-07)-stable) date Wed 30 Apr 2014 09:50:54 BST*
%MOIN*%
G04 Gerber Fmt 3.4, Leading zero omitted, Abs format*
%FSLAX34Y34*%
G01*
G70*
G90*
G04 APERTURE LIST*
%ADD10C,0.00590551*%
%ADD11C,0.006*%
%ADD12C,0.015*%
%ADD13C,0.012*%
%ADD14C,0.01*%
G04 APERTURE END LIST*
G54D10*
G54D11*
X11334Y7216D02*
X11334Y8216D01*
X11334Y8216D02*
X14334Y8216D01*
X14334Y8216D02*
X14334Y7216D01*
X14334Y7216D02*
X11334Y7216D01*
X12334Y8216D02*
X12334Y7216D01*
G54D12*
X4822Y2381D02*
X5806Y1298D01*
X4822Y5334D02*
X5806Y4153D01*
X6101Y1791D02*
G75*
G03X6101Y1791I-787J0D01*
G74*
G01*
X6101Y4743D02*
G75*
G03X6101Y4743I-787J0D01*
G74*
G01*
X7283Y6220D02*
X7283Y314D01*
X7283Y314D02*
X3345Y314D01*
X3345Y314D02*
X3345Y6220D01*
X3345Y6220D02*
X7283Y6220D01*
X5452Y9034D02*
X4369Y8050D01*
X8405Y9034D02*
X7224Y8050D01*
X5649Y8542D02*
G75*
G03X5649Y8542I-787J0D01*
G74*
G01*
X8601Y8542D02*
G75*
G03X8601Y8542I-787J0D01*
G74*
G01*
X9291Y6573D02*
X3385Y6573D01*
X3385Y6573D02*
X3385Y10511D01*
X3385Y10511D02*
X9291Y10511D01*
X9291Y10511D02*
X9291Y6573D01*
X2789Y8542D02*
G75*
G03X2789Y8542I-900J0D01*
G74*
G01*
G54D11*
X14066Y5397D02*
X15066Y5397D01*
X15066Y5397D02*
X15066Y2397D01*
X15066Y2397D02*
X14066Y2397D01*
X14066Y2397D02*
X14066Y5397D01*
X15066Y4397D02*
X14066Y4397D01*
X12801Y8804D02*
X12801Y8518D01*
X12782Y8461D01*
X12744Y8423D01*
X12687Y8404D01*
X12648Y8404D01*
X12953Y8804D02*
X13201Y8804D01*
X13067Y8652D01*
X13125Y8652D01*
X13163Y8633D01*
X13182Y8614D01*
X13201Y8576D01*
X13201Y8480D01*
X13182Y8442D01*
X13163Y8423D01*
X13125Y8404D01*
X13010Y8404D01*
X12972Y8423D01*
X12953Y8442D01*
G54D13*
X6138Y3067D02*
X6567Y3067D01*
X6653Y3039D01*
X6710Y2982D01*
X6738Y2896D01*
X6738Y2839D01*
X6738Y3667D02*
X6738Y3325D01*
X6738Y3496D02*
X6138Y3496D01*
X6224Y3439D01*
X6281Y3382D01*
X6310Y3325D01*
X4319Y2225D02*
X4348Y2196D01*
X4376Y2110D01*
X4376Y2053D01*
X4348Y1967D01*
X4291Y1910D01*
X4233Y1882D01*
X4119Y1853D01*
X4033Y1853D01*
X3919Y1882D01*
X3862Y1910D01*
X3805Y1967D01*
X3776Y2053D01*
X3776Y2110D01*
X3805Y2196D01*
X3833Y2225D01*
X3776Y2596D02*
X3776Y2710D01*
X3805Y2767D01*
X3862Y2825D01*
X3976Y2853D01*
X4176Y2853D01*
X4291Y2825D01*
X4348Y2767D01*
X4376Y2710D01*
X4376Y2596D01*
X4348Y2539D01*
X4291Y2482D01*
X4176Y2453D01*
X3976Y2453D01*
X3862Y2482D01*
X3805Y2539D01*
X3776Y2596D01*
X4376Y3110D02*
X3776Y3110D01*
X4376Y3453D01*
X3776Y3453D01*
X4376Y3739D02*
X3776Y3739D01*
X4376Y4082D01*
X3776Y4082D01*
X3833Y4339D02*
X3805Y4367D01*
X3776Y4425D01*
X3776Y4567D01*
X3805Y4625D01*
X3833Y4653D01*
X3891Y4682D01*
X3948Y4682D01*
X4033Y4653D01*
X4376Y4310D01*
X4376Y4682D01*
X6138Y7719D02*
X6138Y7290D01*
X6110Y7204D01*
X6053Y7147D01*
X5967Y7119D01*
X5910Y7119D01*
X6396Y7661D02*
X6424Y7690D01*
X6481Y7719D01*
X6624Y7719D01*
X6681Y7690D01*
X6710Y7661D01*
X6738Y7604D01*
X6738Y7547D01*
X6710Y7461D01*
X6367Y7119D01*
X6738Y7119D01*
X5296Y9538D02*
X5267Y9509D01*
X5181Y9481D01*
X5124Y9481D01*
X5038Y9509D01*
X4981Y9566D01*
X4953Y9623D01*
X4924Y9738D01*
X4924Y9823D01*
X4953Y9938D01*
X4981Y9995D01*
X5038Y10052D01*
X5124Y10081D01*
X5181Y10081D01*
X5267Y10052D01*
X5296Y10023D01*
X5667Y10081D02*
X5781Y10081D01*
X5838Y10052D01*
X5896Y9995D01*
X5924Y9881D01*
X5924Y9681D01*
X5896Y9566D01*
X5838Y9509D01*
X5781Y9481D01*
X5667Y9481D01*
X5610Y9509D01*
X5553Y9566D01*
X5524Y9681D01*
X5524Y9881D01*
X5553Y9995D01*
X5610Y10052D01*
X5667Y10081D01*
X6181Y9481D02*
X6181Y10081D01*
X6524Y9481D01*
X6524Y10081D01*
X6810Y9481D02*
X6810Y10081D01*
X7153Y9481D01*
X7153Y10081D01*
X7410Y10023D02*
X7438Y10052D01*
X7496Y10081D01*
X7638Y10081D01*
X7696Y10052D01*
X7724Y10023D01*
X7753Y9966D01*
X7753Y9909D01*
X7724Y9823D01*
X7381Y9481D01*
X7753Y9481D01*
G54D14*
X1594Y9580D02*
X1594Y9980D01*
X1747Y9980D01*
X1785Y9961D01*
X1804Y9942D01*
X1823Y9904D01*
X1823Y9847D01*
X1804Y9809D01*
X1785Y9790D01*
X1747Y9771D01*
X1594Y9771D01*
X2204Y9580D02*
X1975Y9580D01*
X2089Y9580D02*
X2089Y9980D01*
X2051Y9923D01*
X2013Y9885D01*
X1975Y9866D01*
G54D11*
X15578Y3502D02*
X15178Y3502D01*
X15578Y3731D02*
X15350Y3559D01*
X15178Y3731D02*
X15407Y3502D01*
X15578Y4112D02*
X15578Y3883D01*
X15578Y3997D02*
X15178Y3997D01*
X15236Y3959D01*
X15274Y3921D01*
X15293Y3883D01*
M02*
