G04 (created by PCBNEW (2013-jul-07)-stable) date Thu 16 Oct 2014 09:38:03 BST*
%MOIN*%
G04 Gerber Fmt 3.4, Leading zero omitted, Abs format*
%FSLAX34Y34*%
G01*
G70*
G90*
G04 APERTURE LIST*
%ADD10C,0.00590551*%
%ADD11C,0.005*%
G04 APERTURE END LIST*
G54D10*
G54D11*
X14897Y6591D02*
X14897Y5691D01*
X14897Y5691D02*
X14247Y5691D01*
X13547Y6591D02*
X12897Y6591D01*
X12897Y6591D02*
X12897Y5691D01*
X12897Y5691D02*
X13547Y5691D01*
X14247Y6591D02*
X14897Y6591D01*
X14267Y1788D02*
X14267Y888D01*
X14267Y888D02*
X13617Y888D01*
X12917Y1788D02*
X12267Y1788D01*
X12267Y1788D02*
X12267Y888D01*
X12267Y888D02*
X12917Y888D01*
X13617Y1788D02*
X14267Y1788D01*
X13947Y5222D02*
X13961Y5207D01*
X14004Y5193D01*
X14033Y5193D01*
X14076Y5207D01*
X14104Y5236D01*
X14119Y5264D01*
X14133Y5322D01*
X14133Y5364D01*
X14119Y5422D01*
X14104Y5450D01*
X14076Y5479D01*
X14033Y5493D01*
X14004Y5493D01*
X13961Y5479D01*
X13947Y5464D01*
X13661Y5193D02*
X13833Y5193D01*
X13747Y5193D02*
X13747Y5493D01*
X13776Y5450D01*
X13804Y5422D01*
X13833Y5407D01*
X13317Y379D02*
X13332Y365D01*
X13374Y351D01*
X13403Y351D01*
X13446Y365D01*
X13474Y393D01*
X13489Y422D01*
X13503Y479D01*
X13503Y522D01*
X13489Y579D01*
X13474Y608D01*
X13446Y636D01*
X13403Y651D01*
X13374Y651D01*
X13332Y636D01*
X13317Y622D01*
X13203Y622D02*
X13189Y636D01*
X13160Y651D01*
X13089Y651D01*
X13060Y636D01*
X13046Y622D01*
X13032Y593D01*
X13032Y565D01*
X13046Y522D01*
X13217Y351D01*
X13032Y351D01*
M02*
