G04 (created by PCBNEW (2013-jul-07)-stable) date Thu 16 Oct 2014 09:38:03 BST*
%MOIN*%
G04 Gerber Fmt 3.4, Leading zero omitted, Abs format*
%FSLAX34Y34*%
G01*
G70*
G90*
G04 APERTURE LIST*
%ADD10C,0.00590551*%
%ADD11R,0.06X0.06*%
%ADD12C,0.06*%
%ADD13R,0.0787X0.0787*%
%ADD14C,0.0984*%
%ADD15C,0.2047*%
%ADD16C,0.0157*%
%ADD17C,0.01*%
G04 APERTURE END LIST*
G54D10*
G54D11*
X11834Y7716D03*
G54D12*
X12834Y7716D03*
X13834Y7716D03*
G54D13*
X5314Y4743D03*
G54D14*
X5314Y1791D03*
G54D13*
X7814Y8542D03*
G54D14*
X4862Y8542D03*
G54D15*
X1889Y8542D03*
G54D11*
X14566Y4897D03*
G54D12*
X14566Y3897D03*
X14566Y2897D03*
G54D15*
X20866Y3897D03*
G54D13*
X9606Y1791D03*
G54D14*
X9606Y4743D03*
G54D11*
X16625Y9833D03*
G54D12*
X16625Y8833D03*
X16625Y7833D03*
X16625Y6833D03*
G54D11*
X19225Y9833D03*
G54D12*
X19225Y8833D03*
X19225Y7833D03*
X19225Y6833D03*
G54D11*
X21825Y9833D03*
G54D12*
X21825Y8833D03*
X21825Y7833D03*
X21825Y6833D03*
G54D16*
X16625Y7833D02*
X17520Y7833D01*
X21314Y7322D02*
X21825Y7833D01*
X18031Y7322D02*
X21314Y7322D01*
X17520Y7833D02*
X18031Y7322D01*
X16625Y9833D02*
X17567Y9833D01*
X21322Y9330D02*
X21825Y9833D01*
X18070Y9330D02*
X21322Y9330D01*
X17567Y9833D02*
X18070Y9330D01*
G54D10*
G36*
X22824Y443D02*
X22149Y443D01*
X22149Y3700D01*
X22127Y4206D01*
X21976Y4571D01*
X21812Y4692D01*
X21660Y4540D01*
X21660Y4844D01*
X21539Y5007D01*
X21063Y5180D01*
X20557Y5158D01*
X20192Y5007D01*
X20071Y4844D01*
X20866Y4049D01*
X21660Y4844D01*
X21660Y4540D01*
X21018Y3897D01*
X21812Y3103D01*
X21976Y3224D01*
X22149Y3700D01*
X22149Y443D01*
X21660Y443D01*
X21660Y2951D01*
X20866Y3745D01*
X20714Y3593D01*
X20714Y3897D01*
X19919Y4692D01*
X19756Y4571D01*
X19582Y4095D01*
X19604Y3589D01*
X19756Y3224D01*
X19919Y3103D01*
X20714Y3897D01*
X20714Y3593D01*
X20071Y2951D01*
X20192Y2787D01*
X20668Y2614D01*
X21174Y2636D01*
X21539Y2787D01*
X21660Y2951D01*
X21660Y443D01*
X15708Y443D01*
X15669Y443D01*
X15127Y443D01*
X15127Y3873D01*
X15117Y3939D01*
X15117Y4647D01*
X15117Y5247D01*
X15079Y5339D01*
X15008Y5409D01*
X14916Y5447D01*
X14817Y5447D01*
X14384Y5447D01*
X14384Y7825D01*
X14301Y8027D01*
X14146Y8182D01*
X13944Y8266D01*
X13725Y8266D01*
X13523Y8183D01*
X13368Y8028D01*
X13334Y7946D01*
X13301Y8027D01*
X13146Y8182D01*
X12944Y8266D01*
X12725Y8266D01*
X12523Y8183D01*
X12384Y8044D01*
X12384Y8066D01*
X12346Y8158D01*
X12276Y8228D01*
X12184Y8266D01*
X12004Y8266D01*
X11942Y8204D01*
X11942Y7824D01*
X11950Y7824D01*
X11950Y7609D01*
X11942Y7609D01*
X11942Y7229D01*
X12004Y7166D01*
X12184Y7166D01*
X12276Y7204D01*
X12346Y7274D01*
X12384Y7366D01*
X12384Y7388D01*
X12522Y7250D01*
X12724Y7166D01*
X12943Y7166D01*
X13145Y7249D01*
X13300Y7404D01*
X13334Y7486D01*
X13368Y7405D01*
X13522Y7250D01*
X13724Y7166D01*
X13943Y7166D01*
X14145Y7249D01*
X14300Y7404D01*
X14384Y7606D01*
X14384Y7825D01*
X14384Y5447D01*
X14217Y5447D01*
X14125Y5409D01*
X14055Y5339D01*
X14017Y5247D01*
X14016Y5148D01*
X14016Y4548D01*
X14054Y4456D01*
X14125Y4386D01*
X14217Y4347D01*
X14309Y4347D01*
X14298Y4317D01*
X14566Y4049D01*
X14835Y4317D01*
X14824Y4347D01*
X14916Y4347D01*
X15008Y4385D01*
X15078Y4456D01*
X15116Y4547D01*
X15117Y4647D01*
X15117Y3939D01*
X15093Y4090D01*
X15075Y4134D01*
X14987Y4165D01*
X14718Y3897D01*
X14987Y3629D01*
X15075Y3661D01*
X15127Y3873D01*
X15127Y443D01*
X15117Y443D01*
X15117Y3006D01*
X15033Y3209D01*
X14878Y3363D01*
X14805Y3394D01*
X14835Y3477D01*
X14566Y3745D01*
X14414Y3593D01*
X14414Y3897D01*
X14146Y4165D01*
X14058Y4134D01*
X14006Y3921D01*
X14040Y3705D01*
X14058Y3661D01*
X14146Y3629D01*
X14414Y3897D01*
X14414Y3593D01*
X14298Y3477D01*
X14328Y3394D01*
X14255Y3364D01*
X14100Y3209D01*
X14017Y3007D01*
X14016Y2788D01*
X14100Y2586D01*
X14255Y2431D01*
X14457Y2347D01*
X14675Y2347D01*
X14878Y2431D01*
X15032Y2585D01*
X15116Y2787D01*
X15117Y3006D01*
X15117Y443D01*
X11727Y443D01*
X11727Y7229D01*
X11727Y7609D01*
X11727Y7824D01*
X11727Y8204D01*
X11664Y8266D01*
X11485Y8266D01*
X11393Y8228D01*
X11322Y8158D01*
X11284Y8066D01*
X11284Y7967D01*
X11284Y7886D01*
X11347Y7824D01*
X11727Y7824D01*
X11727Y7609D01*
X11347Y7609D01*
X11284Y7546D01*
X11284Y7466D01*
X11284Y7366D01*
X11322Y7274D01*
X11393Y7204D01*
X11485Y7166D01*
X11664Y7166D01*
X11727Y7229D01*
X11727Y443D01*
X10359Y443D01*
X10359Y4673D01*
X10329Y4967D01*
X10275Y5096D01*
X10167Y5152D01*
X10015Y5000D01*
X10015Y5304D01*
X9959Y5412D01*
X9676Y5496D01*
X9382Y5466D01*
X9253Y5412D01*
X9197Y5304D01*
X9606Y4895D01*
X10015Y5304D01*
X10015Y5000D01*
X9758Y4743D01*
X10167Y4334D01*
X10275Y4390D01*
X10359Y4673D01*
X10359Y443D01*
X10249Y443D01*
X10249Y1447D01*
X10249Y2234D01*
X10211Y2326D01*
X10141Y2397D01*
X10049Y2435D01*
X10015Y2435D01*
X10015Y4182D01*
X9606Y4591D01*
X9454Y4439D01*
X9454Y4743D01*
X9045Y5152D01*
X8937Y5096D01*
X8853Y4814D01*
X8883Y4520D01*
X8937Y4390D01*
X9045Y4334D01*
X9454Y4743D01*
X9454Y4439D01*
X9197Y4182D01*
X9253Y4074D01*
X9535Y3990D01*
X9829Y4020D01*
X9959Y4074D01*
X10015Y4182D01*
X10015Y2435D01*
X9950Y2435D01*
X9163Y2435D01*
X9071Y2397D01*
X9000Y2327D01*
X8962Y2235D01*
X8962Y2135D01*
X8962Y1348D01*
X9000Y1256D01*
X9071Y1186D01*
X9162Y1148D01*
X9262Y1148D01*
X10049Y1148D01*
X10141Y1186D01*
X10211Y1256D01*
X10249Y1348D01*
X10249Y1447D01*
X10249Y443D01*
X8458Y443D01*
X8458Y8198D01*
X8458Y8985D01*
X8420Y9077D01*
X8350Y9148D01*
X8258Y9186D01*
X8158Y9186D01*
X7371Y9186D01*
X7280Y9148D01*
X7209Y9078D01*
X7171Y8986D01*
X7171Y8886D01*
X7171Y8099D01*
X7209Y8007D01*
X7279Y7937D01*
X7371Y7899D01*
X7470Y7899D01*
X8257Y7899D01*
X8349Y7937D01*
X8420Y8007D01*
X8458Y8099D01*
X8458Y8198D01*
X8458Y443D01*
X6057Y443D01*
X6057Y1938D01*
X5958Y2177D01*
X5958Y4300D01*
X5958Y5186D01*
X5920Y5278D01*
X5850Y5349D01*
X5758Y5387D01*
X5658Y5387D01*
X5616Y5387D01*
X5616Y8472D01*
X5585Y8766D01*
X5532Y8896D01*
X5423Y8951D01*
X5271Y8799D01*
X5271Y9103D01*
X5216Y9211D01*
X4933Y9296D01*
X4639Y9265D01*
X4509Y9211D01*
X4454Y9103D01*
X4862Y8694D01*
X5271Y9103D01*
X5271Y8799D01*
X5014Y8542D01*
X5423Y8134D01*
X5532Y8189D01*
X5616Y8472D01*
X5616Y5387D01*
X5484Y5387D01*
X5422Y5324D01*
X5422Y4851D01*
X5895Y4851D01*
X5958Y4913D01*
X5958Y5186D01*
X5958Y4300D01*
X5958Y4573D01*
X5895Y4636D01*
X5422Y4636D01*
X5422Y4162D01*
X5484Y4100D01*
X5658Y4100D01*
X5758Y4100D01*
X5850Y4138D01*
X5920Y4208D01*
X5958Y4300D01*
X5958Y2177D01*
X5944Y2211D01*
X5735Y2420D01*
X5463Y2533D01*
X5271Y2533D01*
X5271Y7982D01*
X4862Y8390D01*
X4710Y8238D01*
X4710Y8542D01*
X4302Y8951D01*
X4193Y8896D01*
X4109Y8613D01*
X4140Y8319D01*
X4193Y8189D01*
X4302Y8134D01*
X4710Y8542D01*
X4710Y8238D01*
X4454Y7982D01*
X4509Y7873D01*
X4792Y7789D01*
X5086Y7820D01*
X5216Y7873D01*
X5271Y7982D01*
X5271Y2533D01*
X5207Y2533D01*
X5207Y4162D01*
X5207Y4636D01*
X5207Y4851D01*
X5207Y5324D01*
X5145Y5387D01*
X4970Y5387D01*
X4871Y5387D01*
X4779Y5349D01*
X4709Y5278D01*
X4671Y5186D01*
X4671Y4913D01*
X4733Y4851D01*
X5207Y4851D01*
X5207Y4636D01*
X4733Y4636D01*
X4671Y4573D01*
X4671Y4300D01*
X4709Y4208D01*
X4779Y4138D01*
X4871Y4100D01*
X4970Y4100D01*
X5145Y4100D01*
X5207Y4162D01*
X5207Y2533D01*
X5168Y2533D01*
X4895Y2421D01*
X4686Y2212D01*
X4573Y1940D01*
X4572Y1644D01*
X4685Y1372D01*
X4894Y1163D01*
X5166Y1049D01*
X5461Y1049D01*
X5734Y1162D01*
X5943Y1371D01*
X6056Y1643D01*
X6057Y1938D01*
X6057Y443D01*
X3173Y443D01*
X3173Y8345D01*
X3151Y8851D01*
X3000Y9216D01*
X2836Y9337D01*
X2684Y9185D01*
X2684Y9489D01*
X2563Y9652D01*
X2087Y9826D01*
X1581Y9804D01*
X1216Y9652D01*
X1095Y9489D01*
X1889Y8694D01*
X2684Y9489D01*
X2684Y9185D01*
X2041Y8542D01*
X2836Y7748D01*
X3000Y7869D01*
X3173Y8345D01*
X3173Y443D01*
X2684Y443D01*
X2684Y7596D01*
X1889Y8390D01*
X1737Y8238D01*
X1737Y8542D01*
X943Y9337D01*
X779Y9216D01*
X606Y8740D01*
X628Y8234D01*
X779Y7869D01*
X943Y7748D01*
X1737Y8542D01*
X1737Y8238D01*
X1095Y7596D01*
X1216Y7432D01*
X1692Y7259D01*
X2198Y7281D01*
X2563Y7432D01*
X2684Y7596D01*
X2684Y443D01*
X403Y443D01*
X403Y10344D01*
X10000Y10344D01*
X15708Y10344D01*
X15728Y10348D01*
X15748Y10344D01*
X16182Y10344D01*
X16114Y10275D01*
X16076Y10183D01*
X16075Y10084D01*
X16075Y9484D01*
X16113Y9392D01*
X16184Y9322D01*
X16276Y9283D01*
X16298Y9283D01*
X16159Y9145D01*
X16076Y8943D01*
X16075Y8724D01*
X16159Y8522D01*
X16314Y8367D01*
X16395Y8333D01*
X16314Y8300D01*
X16159Y8145D01*
X16076Y7943D01*
X16075Y7724D01*
X16159Y7522D01*
X16314Y7367D01*
X16395Y7333D01*
X16314Y7300D01*
X16159Y7145D01*
X16076Y6943D01*
X16075Y6724D01*
X16159Y6522D01*
X16314Y6367D01*
X16516Y6283D01*
X16734Y6283D01*
X16937Y6367D01*
X17091Y6521D01*
X17175Y6723D01*
X17176Y6942D01*
X17092Y7145D01*
X16937Y7299D01*
X16856Y7333D01*
X16937Y7367D01*
X17075Y7505D01*
X17384Y7505D01*
X17799Y7090D01*
X17905Y7019D01*
X17905Y7019D01*
X18031Y6994D01*
X18697Y6994D01*
X18676Y6943D01*
X18675Y6724D01*
X18759Y6522D01*
X18914Y6367D01*
X19116Y6283D01*
X19334Y6283D01*
X19537Y6367D01*
X19691Y6521D01*
X19775Y6723D01*
X19776Y6942D01*
X19754Y6994D01*
X21297Y6994D01*
X21276Y6943D01*
X21275Y6724D01*
X21359Y6522D01*
X21514Y6367D01*
X21716Y6283D01*
X21934Y6283D01*
X22137Y6367D01*
X22291Y6521D01*
X22375Y6723D01*
X22376Y6942D01*
X22292Y7145D01*
X22137Y7299D01*
X22056Y7333D01*
X22137Y7367D01*
X22291Y7521D01*
X22375Y7723D01*
X22376Y7942D01*
X22292Y8145D01*
X22137Y8299D01*
X22056Y8333D01*
X22137Y8367D01*
X22291Y8521D01*
X22375Y8723D01*
X22376Y8942D01*
X22292Y9145D01*
X22153Y9283D01*
X22175Y9283D01*
X22267Y9321D01*
X22337Y9392D01*
X22375Y9483D01*
X22376Y9583D01*
X22376Y10183D01*
X22338Y10275D01*
X22269Y10344D01*
X22824Y10344D01*
X22824Y443D01*
X22824Y443D01*
G37*
G54D17*
X22824Y443D02*
X22149Y443D01*
X22149Y3700D01*
X22127Y4206D01*
X21976Y4571D01*
X21812Y4692D01*
X21660Y4540D01*
X21660Y4844D01*
X21539Y5007D01*
X21063Y5180D01*
X20557Y5158D01*
X20192Y5007D01*
X20071Y4844D01*
X20866Y4049D01*
X21660Y4844D01*
X21660Y4540D01*
X21018Y3897D01*
X21812Y3103D01*
X21976Y3224D01*
X22149Y3700D01*
X22149Y443D01*
X21660Y443D01*
X21660Y2951D01*
X20866Y3745D01*
X20714Y3593D01*
X20714Y3897D01*
X19919Y4692D01*
X19756Y4571D01*
X19582Y4095D01*
X19604Y3589D01*
X19756Y3224D01*
X19919Y3103D01*
X20714Y3897D01*
X20714Y3593D01*
X20071Y2951D01*
X20192Y2787D01*
X20668Y2614D01*
X21174Y2636D01*
X21539Y2787D01*
X21660Y2951D01*
X21660Y443D01*
X15708Y443D01*
X15669Y443D01*
X15127Y443D01*
X15127Y3873D01*
X15117Y3939D01*
X15117Y4647D01*
X15117Y5247D01*
X15079Y5339D01*
X15008Y5409D01*
X14916Y5447D01*
X14817Y5447D01*
X14384Y5447D01*
X14384Y7825D01*
X14301Y8027D01*
X14146Y8182D01*
X13944Y8266D01*
X13725Y8266D01*
X13523Y8183D01*
X13368Y8028D01*
X13334Y7946D01*
X13301Y8027D01*
X13146Y8182D01*
X12944Y8266D01*
X12725Y8266D01*
X12523Y8183D01*
X12384Y8044D01*
X12384Y8066D01*
X12346Y8158D01*
X12276Y8228D01*
X12184Y8266D01*
X12004Y8266D01*
X11942Y8204D01*
X11942Y7824D01*
X11950Y7824D01*
X11950Y7609D01*
X11942Y7609D01*
X11942Y7229D01*
X12004Y7166D01*
X12184Y7166D01*
X12276Y7204D01*
X12346Y7274D01*
X12384Y7366D01*
X12384Y7388D01*
X12522Y7250D01*
X12724Y7166D01*
X12943Y7166D01*
X13145Y7249D01*
X13300Y7404D01*
X13334Y7486D01*
X13368Y7405D01*
X13522Y7250D01*
X13724Y7166D01*
X13943Y7166D01*
X14145Y7249D01*
X14300Y7404D01*
X14384Y7606D01*
X14384Y7825D01*
X14384Y5447D01*
X14217Y5447D01*
X14125Y5409D01*
X14055Y5339D01*
X14017Y5247D01*
X14016Y5148D01*
X14016Y4548D01*
X14054Y4456D01*
X14125Y4386D01*
X14217Y4347D01*
X14309Y4347D01*
X14298Y4317D01*
X14566Y4049D01*
X14835Y4317D01*
X14824Y4347D01*
X14916Y4347D01*
X15008Y4385D01*
X15078Y4456D01*
X15116Y4547D01*
X15117Y4647D01*
X15117Y3939D01*
X15093Y4090D01*
X15075Y4134D01*
X14987Y4165D01*
X14718Y3897D01*
X14987Y3629D01*
X15075Y3661D01*
X15127Y3873D01*
X15127Y443D01*
X15117Y443D01*
X15117Y3006D01*
X15033Y3209D01*
X14878Y3363D01*
X14805Y3394D01*
X14835Y3477D01*
X14566Y3745D01*
X14414Y3593D01*
X14414Y3897D01*
X14146Y4165D01*
X14058Y4134D01*
X14006Y3921D01*
X14040Y3705D01*
X14058Y3661D01*
X14146Y3629D01*
X14414Y3897D01*
X14414Y3593D01*
X14298Y3477D01*
X14328Y3394D01*
X14255Y3364D01*
X14100Y3209D01*
X14017Y3007D01*
X14016Y2788D01*
X14100Y2586D01*
X14255Y2431D01*
X14457Y2347D01*
X14675Y2347D01*
X14878Y2431D01*
X15032Y2585D01*
X15116Y2787D01*
X15117Y3006D01*
X15117Y443D01*
X11727Y443D01*
X11727Y7229D01*
X11727Y7609D01*
X11727Y7824D01*
X11727Y8204D01*
X11664Y8266D01*
X11485Y8266D01*
X11393Y8228D01*
X11322Y8158D01*
X11284Y8066D01*
X11284Y7967D01*
X11284Y7886D01*
X11347Y7824D01*
X11727Y7824D01*
X11727Y7609D01*
X11347Y7609D01*
X11284Y7546D01*
X11284Y7466D01*
X11284Y7366D01*
X11322Y7274D01*
X11393Y7204D01*
X11485Y7166D01*
X11664Y7166D01*
X11727Y7229D01*
X11727Y443D01*
X10359Y443D01*
X10359Y4673D01*
X10329Y4967D01*
X10275Y5096D01*
X10167Y5152D01*
X10015Y5000D01*
X10015Y5304D01*
X9959Y5412D01*
X9676Y5496D01*
X9382Y5466D01*
X9253Y5412D01*
X9197Y5304D01*
X9606Y4895D01*
X10015Y5304D01*
X10015Y5000D01*
X9758Y4743D01*
X10167Y4334D01*
X10275Y4390D01*
X10359Y4673D01*
X10359Y443D01*
X10249Y443D01*
X10249Y1447D01*
X10249Y2234D01*
X10211Y2326D01*
X10141Y2397D01*
X10049Y2435D01*
X10015Y2435D01*
X10015Y4182D01*
X9606Y4591D01*
X9454Y4439D01*
X9454Y4743D01*
X9045Y5152D01*
X8937Y5096D01*
X8853Y4814D01*
X8883Y4520D01*
X8937Y4390D01*
X9045Y4334D01*
X9454Y4743D01*
X9454Y4439D01*
X9197Y4182D01*
X9253Y4074D01*
X9535Y3990D01*
X9829Y4020D01*
X9959Y4074D01*
X10015Y4182D01*
X10015Y2435D01*
X9950Y2435D01*
X9163Y2435D01*
X9071Y2397D01*
X9000Y2327D01*
X8962Y2235D01*
X8962Y2135D01*
X8962Y1348D01*
X9000Y1256D01*
X9071Y1186D01*
X9162Y1148D01*
X9262Y1148D01*
X10049Y1148D01*
X10141Y1186D01*
X10211Y1256D01*
X10249Y1348D01*
X10249Y1447D01*
X10249Y443D01*
X8458Y443D01*
X8458Y8198D01*
X8458Y8985D01*
X8420Y9077D01*
X8350Y9148D01*
X8258Y9186D01*
X8158Y9186D01*
X7371Y9186D01*
X7280Y9148D01*
X7209Y9078D01*
X7171Y8986D01*
X7171Y8886D01*
X7171Y8099D01*
X7209Y8007D01*
X7279Y7937D01*
X7371Y7899D01*
X7470Y7899D01*
X8257Y7899D01*
X8349Y7937D01*
X8420Y8007D01*
X8458Y8099D01*
X8458Y8198D01*
X8458Y443D01*
X6057Y443D01*
X6057Y1938D01*
X5958Y2177D01*
X5958Y4300D01*
X5958Y5186D01*
X5920Y5278D01*
X5850Y5349D01*
X5758Y5387D01*
X5658Y5387D01*
X5616Y5387D01*
X5616Y8472D01*
X5585Y8766D01*
X5532Y8896D01*
X5423Y8951D01*
X5271Y8799D01*
X5271Y9103D01*
X5216Y9211D01*
X4933Y9296D01*
X4639Y9265D01*
X4509Y9211D01*
X4454Y9103D01*
X4862Y8694D01*
X5271Y9103D01*
X5271Y8799D01*
X5014Y8542D01*
X5423Y8134D01*
X5532Y8189D01*
X5616Y8472D01*
X5616Y5387D01*
X5484Y5387D01*
X5422Y5324D01*
X5422Y4851D01*
X5895Y4851D01*
X5958Y4913D01*
X5958Y5186D01*
X5958Y4300D01*
X5958Y4573D01*
X5895Y4636D01*
X5422Y4636D01*
X5422Y4162D01*
X5484Y4100D01*
X5658Y4100D01*
X5758Y4100D01*
X5850Y4138D01*
X5920Y4208D01*
X5958Y4300D01*
X5958Y2177D01*
X5944Y2211D01*
X5735Y2420D01*
X5463Y2533D01*
X5271Y2533D01*
X5271Y7982D01*
X4862Y8390D01*
X4710Y8238D01*
X4710Y8542D01*
X4302Y8951D01*
X4193Y8896D01*
X4109Y8613D01*
X4140Y8319D01*
X4193Y8189D01*
X4302Y8134D01*
X4710Y8542D01*
X4710Y8238D01*
X4454Y7982D01*
X4509Y7873D01*
X4792Y7789D01*
X5086Y7820D01*
X5216Y7873D01*
X5271Y7982D01*
X5271Y2533D01*
X5207Y2533D01*
X5207Y4162D01*
X5207Y4636D01*
X5207Y4851D01*
X5207Y5324D01*
X5145Y5387D01*
X4970Y5387D01*
X4871Y5387D01*
X4779Y5349D01*
X4709Y5278D01*
X4671Y5186D01*
X4671Y4913D01*
X4733Y4851D01*
X5207Y4851D01*
X5207Y4636D01*
X4733Y4636D01*
X4671Y4573D01*
X4671Y4300D01*
X4709Y4208D01*
X4779Y4138D01*
X4871Y4100D01*
X4970Y4100D01*
X5145Y4100D01*
X5207Y4162D01*
X5207Y2533D01*
X5168Y2533D01*
X4895Y2421D01*
X4686Y2212D01*
X4573Y1940D01*
X4572Y1644D01*
X4685Y1372D01*
X4894Y1163D01*
X5166Y1049D01*
X5461Y1049D01*
X5734Y1162D01*
X5943Y1371D01*
X6056Y1643D01*
X6057Y1938D01*
X6057Y443D01*
X3173Y443D01*
X3173Y8345D01*
X3151Y8851D01*
X3000Y9216D01*
X2836Y9337D01*
X2684Y9185D01*
X2684Y9489D01*
X2563Y9652D01*
X2087Y9826D01*
X1581Y9804D01*
X1216Y9652D01*
X1095Y9489D01*
X1889Y8694D01*
X2684Y9489D01*
X2684Y9185D01*
X2041Y8542D01*
X2836Y7748D01*
X3000Y7869D01*
X3173Y8345D01*
X3173Y443D01*
X2684Y443D01*
X2684Y7596D01*
X1889Y8390D01*
X1737Y8238D01*
X1737Y8542D01*
X943Y9337D01*
X779Y9216D01*
X606Y8740D01*
X628Y8234D01*
X779Y7869D01*
X943Y7748D01*
X1737Y8542D01*
X1737Y8238D01*
X1095Y7596D01*
X1216Y7432D01*
X1692Y7259D01*
X2198Y7281D01*
X2563Y7432D01*
X2684Y7596D01*
X2684Y443D01*
X403Y443D01*
X403Y10344D01*
X10000Y10344D01*
X15708Y10344D01*
X15728Y10348D01*
X15748Y10344D01*
X16182Y10344D01*
X16114Y10275D01*
X16076Y10183D01*
X16075Y10084D01*
X16075Y9484D01*
X16113Y9392D01*
X16184Y9322D01*
X16276Y9283D01*
X16298Y9283D01*
X16159Y9145D01*
X16076Y8943D01*
X16075Y8724D01*
X16159Y8522D01*
X16314Y8367D01*
X16395Y8333D01*
X16314Y8300D01*
X16159Y8145D01*
X16076Y7943D01*
X16075Y7724D01*
X16159Y7522D01*
X16314Y7367D01*
X16395Y7333D01*
X16314Y7300D01*
X16159Y7145D01*
X16076Y6943D01*
X16075Y6724D01*
X16159Y6522D01*
X16314Y6367D01*
X16516Y6283D01*
X16734Y6283D01*
X16937Y6367D01*
X17091Y6521D01*
X17175Y6723D01*
X17176Y6942D01*
X17092Y7145D01*
X16937Y7299D01*
X16856Y7333D01*
X16937Y7367D01*
X17075Y7505D01*
X17384Y7505D01*
X17799Y7090D01*
X17905Y7019D01*
X17905Y7019D01*
X18031Y6994D01*
X18697Y6994D01*
X18676Y6943D01*
X18675Y6724D01*
X18759Y6522D01*
X18914Y6367D01*
X19116Y6283D01*
X19334Y6283D01*
X19537Y6367D01*
X19691Y6521D01*
X19775Y6723D01*
X19776Y6942D01*
X19754Y6994D01*
X21297Y6994D01*
X21276Y6943D01*
X21275Y6724D01*
X21359Y6522D01*
X21514Y6367D01*
X21716Y6283D01*
X21934Y6283D01*
X22137Y6367D01*
X22291Y6521D01*
X22375Y6723D01*
X22376Y6942D01*
X22292Y7145D01*
X22137Y7299D01*
X22056Y7333D01*
X22137Y7367D01*
X22291Y7521D01*
X22375Y7723D01*
X22376Y7942D01*
X22292Y8145D01*
X22137Y8299D01*
X22056Y8333D01*
X22137Y8367D01*
X22291Y8521D01*
X22375Y8723D01*
X22376Y8942D01*
X22292Y9145D01*
X22153Y9283D01*
X22175Y9283D01*
X22267Y9321D01*
X22337Y9392D01*
X22375Y9483D01*
X22376Y9583D01*
X22376Y10183D01*
X22338Y10275D01*
X22269Y10344D01*
X22824Y10344D01*
X22824Y443D01*
M02*
