M48
;DRILL file {Pcbnew (2013-jul-07)-stable} date Thu 16 Oct 2014 09:38:09 BST
;FORMAT={-:-/ absolute / metric / decimal}
FMAT,2
METRIC,TZ
T1C1.016
T2C1.501
T3C3.200
%
G90
G05
M71
T1
X30.06Y19.6
X32.6Y19.6
X35.14Y19.6
X37.Y12.441
X37.Y9.901
X37.Y7.361
X42.23Y24.978
X42.23Y22.438
X42.23Y19.898
X42.23Y17.358
X48.834Y24.978
X48.834Y22.438
X48.834Y19.898
X48.834Y17.358
X55.438Y24.978
X55.438Y22.438
X55.438Y19.898
X55.438Y17.358
T2
X12.352Y21.699
X13.5Y12.049
X13.5Y4.551
X19.85Y21.699
X24.4Y12.049
X24.4Y4.551
T3
X4.801Y21.699
X53.Y9.9
T0
M30
